<svg width="47" height="47" viewBox="0 0 47 47" fill="none" xmlns="http://www.w3.org/2000/svg">
<rect width="47" height="47" rx="4" fill="#CB997E"/>
<path d="M21.64 36.352C19.1867 36.352 17.2347 35.6907 15.784 34.368C14.3547 33.024 13.64 31.2213 13.64 28.96H18.44C18.44 29.9413 18.728 30.7307 19.304 31.328C19.88 31.904 20.6587 32.192 21.64 32.192C22.6213 32.192 23.4 31.9147 23.976 31.36C24.552 30.784 24.84 30.0053 24.84 29.024V17.12H19.56V12.64H29.64V29.024C29.64 31.2853 28.9253 33.0773 27.496 34.4C26.0667 35.7013 24.1147 36.352 21.64 36.352Z" fill="#F9DCC4"/>
</svg>
